<svg xmlns="http://www.w3.org/2000/svg" xmlns:xlink="http://www.w3.org/1999/xlink" id="Camada_1" x="0px" y="0px" viewBox="0 0 100 100" style="enable-background:new 0 0 100 100;" xml:space="preserve"><style type="text/css">	.st0{fill:url(#SVGID_1_);}	.st1{fill:#FFFFFF;}</style><linearGradient id="SVGID_1_" gradientUnits="userSpaceOnUse" x1="-3.3741" y1="18.6189" x2="104.4696" y2="80.8825">	<stop offset="0" style="stop-color:#C9A96D"></stop>	<stop offset="1" style="stop-color:#9A7A47"></stop></linearGradient><path class="st0" d="M93.7,96.8H7.4c-1.5,0-2.7-1.2-2.7-2.7V5.4c0-1.5,1.2-2.7,2.7-2.7h86.3c1.5,0,2.7,1.2,2.7,2.7v88.7 C96.4,95.6,95.2,96.8,93.7,96.8z"></path><g>	<path class="st1" d="M84.1,19.9c-0.1,1.2-0.2,2.4-0.3,3.5c-0.4,4.1-1.4,8.1-2.7,12c0,0.1-0.1,0.1-0.1,0.1  C75.4,30,69.7,24.6,64,19.1c1.7-0.6,3.4-1.2,5.2-1.7c3.2-1,6.5-1.6,9.9-1.8c0.2,0,0.3-0.1,0.5-0.1c1.5,0,3-0.1,4.5-0.1  C84.1,16.9,84.1,18.4,84.1,19.9z"></path>	<path class="st1" d="M47.6,50.3c-2.7,2.8-5.4,5.6-8.1,8.4c-2.5-2.4-5-4.8-7.6-7.3c0.2-0.3,0.5-0.8,0.7-1.2c1.8-3.1,3.5-6.3,5.4-9.3  c5.4-8.4,12.4-15.1,21.3-19.7c0.4-0.2,0.7-0.2,1,0.1c6.1,5.9,12.3,11.9,18.5,17.8c0.4,0.3,0.4,0.6,0.2,1  c-4.3,9.1-10.7,16.3-18.8,22c-2.9,2-5.9,3.8-8.9,5.7c-0.5,0.3-1,0.6-1.4,0.9c-2.5-2.4-5-4.8-7.5-7.2c2.7-2.8,5.4-5.6,8.1-8.4  C49.5,52.2,48.6,51.3,47.6,50.3z M65.4,42.9c-0.1-4.4-3.6-7.8-8-7.8c-4.4,0-7.9,3.6-7.8,8.1c0.1,4.4,3.7,7.9,8.1,7.8  C62,50.9,65.4,47.3,65.4,42.9z"></path>	<path class="st1" d="M17,55.1c1.4-4.1,3.4-7.9,6.8-10.8c2.9-2.4,6.2-3.7,10-4.1c-0.1,0.3-0.2,0.4-0.3,0.6  c-2.9,5.1-5.8,10.1-8.7,15.2c-0.2,0.4-0.5,0.5-0.9,0.4c-2.1-0.4-4.2-0.8-6.3-1.1C17.4,55.2,17.2,55.1,17,55.1z"></path>	<path class="st1" d="M61.2,66.5c-0.3,6.2-3.7,13.7-14.2,17.4c-0.4-1.8-0.8-3.5-1.2-5.3c-0.2-0.7-0.6-1.6-0.3-2.2  c0.2-0.6,1.1-0.8,1.7-1.2c4.4-2.8,8.9-5.6,13.3-8.3C60.7,66.8,60.9,66.7,61.2,66.5z"></path>	<path class="st1" d="M17.9,84.1c0.7-1.3,1.4-2.7,2-4c1.2-2.5,2.5-4.9,3.7-7.4c0.8-1.5,2.4-2.3,4-2.1c1.7,0.3,3,1.5,3.4,3.2  c0.3,1.6-0.5,3.3-1.9,4.1c-3.6,2-7.2,4-10.8,6C18.2,84,18.1,84.1,17.9,84.1C18,84.1,17.9,84.1,17.9,84.1z"></path>	<path class="st1" d="M36.5,61.7c-1.7,1.8-3.5,3.7-5.3,5.5c-1.8-1.7-3.5-3.4-5.4-5.2c1.3-2.2,2.6-4.5,3.9-6.8  C32.1,57.4,34.3,59.6,36.5,61.7z"></path>	<path class="st1" d="M39.6,64.7c2.2,2.1,4.4,4.2,6.7,6.4c-2.2,1.4-4.5,2.8-6.7,4.2c-1.8-1.7-3.6-3.5-5.3-5.1  C36.1,68.4,37.9,66.5,39.6,64.7z"></path>	<path class="st1" d="M57.4,39.1c2.2-0.1,4,1.6,4,3.8c0.1,2.2-1.7,4-3.9,4.1c-2.2,0-4-1.7-4-3.9C53.4,40.9,55.2,39.1,57.4,39.1z"></path></g></svg>